  0
SECTION
  2
HEADER
  9
$ACADVER
  1
AC1014
  9
$ACADMAINTVER
 70
     0
  9
$DWGCODEPAGE
  3
ANSI_1252
  9
$INSBASE
 10
0.0
 20
0.0
 30
0.0
  9
$EXTMIN
 10
0.0
 20
0.0
 30
0.0
  9
$EXTMAX
 10
17.0
 20
11.0
 30
0.0
  9
$LIMMIN
 10
0.0
 20
0.0
  9
$LIMMAX
 10
12.0
 20
9.0
  9
$ORTHOMODE
 70
     0
  9
$REGENMODE
 70
     1
  9
$FILLMODE
 70
     0
  9
$QTEXTMODE
 70
     0
  9
$MIRRTEXT
 70
     1
  9
$DRAGMODE
 70
     2
  9
$LTSCALE
 40
1.0
  9
$OSMODE
 70
    37
  9
$ATTMODE
 70
     1
  9
$TEXTSIZE
 40
0.2
  9
$TRACEWID
 40
0.05
  9
$TEXTSTYLE
  7
STANDARD
  9
$CLAYER
  8
0
  9
$CELTYPE
  6
BYLAYER
  9
$CECOLOR
 62
   256
  9
$CELTSCALE
 40
1.0
  9
$DELOBJ
 70
     1
  9
$DISPSILH
 70
     0
  9
$DIMSCALE
 40
1.0
  9
$DIMASZ
 40
0.18
  9
$DIMEXO
 40
0.0625
  9
$DIMDLI
 40
0.38
  9
$DIMRND
 40
0.0
  9
$DIMDLE
 40
0.0
  9
$DIMEXE
 40
0.18
  9
$DIMTP
 40
0.0
  9
$DIMTM
 40
0.0
  9
$DIMTXT
 40
0.18
  9
$DIMCEN
 40
0.09
  9
$DIMTSZ
 40
0.0
  9
$DIMTOL
 70
     0
  9
$DIMLIM
 70
     0
  9
$DIMTIH
 70
     0
  9
$DIMTOH
 70
     0
  9
$DIMSE1
 70
     0
  9
$DIMSE2
 70
     0
  9
$DIMTAD
 70
     1
  9
$DIMZIN
 70
     0
  9
$DIMBLK
  1

  9
$DIMASO
 70
     1
  9
$DIMSHO
 70
     1
  9
$DIMPOST
  1

  9
$DIMAPOST
  1

  9
$DIMALT
 70
     0
  9
$DIMALTD
 70
     2
  9
$DIMALTF
 40
25.4
  9
$DIMLFAC
 40
1.0
  9
$DIMTOFL
 70
     0
  9
$DIMTVP
 40
0.0
  9
$DIMTIX
 70
     0
  9
$DIMSOXD
 70
     0
  9
$DIMSAH
 70
     0
  9
$DIMBLK1
  1

  9
$DIMBLK2
  1

  9
$DIMSTYLE
  2
STANDARD
  9
$DIMCLRD
 70
     0
  9
$DIMCLRE
 70
     0
  9
$DIMCLRT
 70
     0
  9
$DIMTFAC
 40
1.0
  9
$DIMGAP
 40
0.09
  9
$DIMJUST
 70
     0
  9
$DIMSD1
 70
     0
  9
$DIMSD2
 70
     0
  9
$DIMTOLJ
 70
     1
  9
$DIMTZIN
 70
     0
  9
$DIMALTZ
 70
     0
  9
$DIMALTTZ
 70
     0
  9
$DIMFIT
 70
     5
  9
$DIMUPT
 70
     0
  9
$DIMUNIT
 70
     2
  9
$DIMDEC
 70
     2
  9
$DIMTDEC
 70
     4
  9
$DIMALTU
 70
     2
  9
$DIMALTTD
 70
     2
  9
$DIMTXSTY
  7
STANDARD
  9
$DIMAUNIT
 70
     0
  9
$LUNITS
 70
     2
  9
$LUPREC
 70
     4
  9
$SKETCHINC
 40
0.1
  9
$FILLETRAD
 40
0.5
  9
$AUNITS
 70
     0
  9
$AUPREC
 70
     0
  9
$MENU
  1
.
  9
$ELEVATION
 40
0.0
  9
$PELEVATION
 40
0.0
  9
$THICKNESS
 40
0.0
  9
$LIMCHECK
 70
     0
  9
$BLIPMODE
 70
     0
  9
$CHAMFERA
 40
0.5
  9
$CHAMFERB
 40
0.5
  9
$CHAMFERC
 40
1.0
  9
$CHAMFERD
 40
0.0
  9
$SKPOLY
 70
     0
  9
$TDCREATE
 40
2450772.666465926
  9
$TDUPDATE
 40
2457199.363240729
  9
$TDINDWG
 40
0.0011565046
  9
$TDUSRTIMER
 40
0.0011565046
  9
$USRTIMER
 70
     1
  9
$ANGBASE
 50
0.0
  9
$ANGDIR
 70
     0
  9
$PDMODE
 70
     0
  9
$PDSIZE
 40
0.0
  9
$PLINEWID
 40
0.0
  9
$COORDS
 70
     1
  9
$SPLFRAME
 70
     0
  9
$SPLINETYPE
 70
     6
  9
$SPLINESEGS
 70
     8
  9
$ATTDIA
 70
     0
  9
$ATTREQ
 70
     1
  9
$HANDLING
 70
     1
  9
$HANDSEED
  5
84
  9
$SURFTAB1
 70
     6
  9
$SURFTAB2
 70
     6
  9
$SURFTYPE
 70
     6
  9
$SURFU
 70
     6
  9
$SURFV
 70
     6
  9
$UCSNAME
  2

  9
$UCSORG
 10
0.0
 20
0.0
 30
0.0
  9
$UCSXDIR
 10
1.0
 20
0.0
 30
0.0
  9
$UCSYDIR
 10
0.0
 20
1.0
 30
0.0
  9
$PUCSNAME
  2

  9
$PUCSORG
 10
0.0
 20
0.0
 30
0.0
  9
$PUCSXDIR
 10
1.0
 20
0.0
 30
0.0
  9
$PUCSYDIR
 10
0.0
 20
1.0
 30
0.0
  9
$USERI1
 70
     0
  9
$USERI2
 70
     0
  9
$USERI3
 70
     0
  9
$USERI4
 70
     0
  9
$USERI5
 70
     0
  9
$USERR1
 40
0.0
  9
$USERR2
 40
0.0
  9
$USERR3
 40
0.0
  9
$USERR4
 40
0.0
  9
$USERR5
 40
0.0
  9
$WORLDVIEW
 70
     1
  9
$SHADEDGE
 70
     3
  9
$SHADEDIF
 70
    70
  9
$TILEMODE
 70
     1
  9
$MAXACTVP
 70
    48
  9
$PINSBASE
 10
0.0
 20
0.0
 30
0.0
  9
$PLIMCHECK
 70
     0
  9
$PEXTMIN
 10
0.0
 20
0.0
 30
0.0
  9
$PEXTMAX
 10
0.0
 20
0.0
 30
0.0
  9
$PLIMMIN
 10
0.0
 20
0.0
  9
$PLIMMAX
 10
12.0
 20
9.0
  9
$UNITMODE
 70
     0
  9
$VISRETAIN
 70
     1
  9
$PLINEGEN
 70
     0
  9
$PSLTSCALE
 70
     1
  9
$TREEDEPTH
 70
  3020
  9
$PICKSTYLE
 70
     1
  9
$CMLSTYLE
  2
STANDARD
  9
$CMLJUST
 70
     0
  9
$CMLSCALE
 40
1.0
  9
$PROXYGRAPHICS
 70
     1
  9
$MEASUREMENT
 70
     0
  0
ENDSEC
  0
SECTION
  2
CLASSES
  0
CLASS
  1
LWPOLYLINE
  2
AcDbPolyline
  3
AutoCAD 2000
 90
       20
280
     0
281
     1
  0
CLASS
  1
IMAGE
  2
AcDbRasterImage
  3
ISM
 90
       21
280
     0
281
     1
  0
CLASS
  1
OLE2FRAME
  2
AcDbOle2Frame
  3
AutoCAD 2000
 90
       21
280
     0
281
     1
  0
CLASS
  1
HATCH
  2
AcDbHatch
  3
AutoCAD 2000
 90
       20
280
     0
281
     1
  0
CLASS
  1
DICTIONARYVAR
  2
AcDbDictionaryVar
  3
ObjectDBX Classes
 90
       20
280
     0
281
     0
  0
CLASS
  1
RASTERVARIABLES
  2
AcDbRasterVariables
  3
ISM
 90
       21
280
     0
281
     0
  0
CLASS
  1
IMAGEDEF
  2
AcDbRasterImageDef
  3
ISM
 90
       21
280
     0
281
     0
  0
CLASS
  1
IMAGEDEF_REACTOR
  2
AcDbRasterImageDefReactor
  3
ISM
 90
       21
280
     0
281
     0
  0
CLASS
  1
IDBUFFER
  2
AcDbIdBuffer
  3
ObjectDBX Classes
 90
       20
280
     0
281
     0
  0
CLASS
  1
SPATIAL_FILTER
  2
AcDbSpatialFilter
  3
ObjectDBX Classes
 90
       20
280
     0
281
     0
  0
CLASS
  1
XRECORD
  2
AcDbXrecord
  3
AutoCAD 2000
 90
       21
280
     0
281
     0
  0
CLASS
  1
SORTENTSTABLE
  2
AcDbSortentsTable
  3
"AutoCAD"
 90
        0
280
     0
281
     0
  0
CLASS
  1
LAYER_INDEX
  2
AcDbLayerIndex
  3
"Acad"
 90
        0
280
     0
281
     0
  0
CLASS
  1
SPATIAL_INDEX
  2
AcDbSpatialIndex
  3
"Acad"
 90
        0
280
     0
281
     0
  0
CLASS
  1
OBJECT_PTR
  2
CAseDLPNTableRecord
  3
"ASE-LPNTableRecord"
 90
        1
280
     0
281
     0
  0
CLASS
  1
LAYOUT
  2
AcDbLayout
  3
"AutoCAD 2000"
 90
        1
280
     0
281
     0
  0
CLASS
  1
PLOTSETTINGS
  2
AcDbPlotsettings
  3
"AutoCAD 2000"
 90
        1
280
     0
281
     0
  0
CLASS
  1
ACDBDICTIONARYWDFLT
  2
AcDbDictionaryWithDefault
  3
"AutoCAD 2000"
 90
        1
280
     0
281
     0
  0
CLASS
  1
ACDBPLACEHOLDER
  2
AcDbPlaceholder
  3
"AutoCAD 2000"
 90
        1
280
     0
281
     0
  0
CLASS
  1
VBA_PROJECT
  2
AcDbVbaProject
  3
"AutoCAD 2000"
 90
        1
280
     0
281
     0
  0
CLASS
  1
WIPEOUT
  2
AcDbWipeout
  3
"AutoCAD 2000"
 90
        1
280
     0
281
     1
  0
CLASS
  1
WIPEOUTVARIABLES
  2
AcDbWipeoutVariables
  3
"AutoCAD 2000"
 90
        1
280
     0
281
     0
  0
CLASS
  1
RTEXT
  2
RText
  3
RText|AutoCAD Express Tool|expresstools@autodesk.com
 90
        1
280
     0
281
     1
  0
CLASS
  1
ARCALIGNEDTEXT
  2
AcDbArcAlignedText
  3
RText|AutoCAD Express Tool|expresstools@autodesk.com
 90
        1
280
     0
281
     1
  0
ENDSEC
  0
SECTION
  2
TABLES
  0
TABLE
  2
VPORT
  5
8
100
AcDbSymbolTable
 70
     1
  0
VPORT
  5
25
100
AcDbSymbolTableRecord
100
AcDbViewportTableRecord
  2
*ACTIVE
 70
     0
 10
0.0
 20
0.0
 11
1.0
 21
1.0
 12
8.5
 22
5.5
 13
0.0
 23
0.0
 14
0.5
 24
0.5
 15
0.5
 25
0.5
 16
0.0
 26
0.0
 36
1.0
 17
0.0
 27
0.0
 37
0.0
 40
11.0
 41
1.545455
 42
50.0
 43
0.0
 44
0.0
 50
0.0
 51
0.0
 71
     0
 72
   100
 73
     1
 74
     1
 75
     0
 76
     0
 77
     0
 78
     0
  0
ENDTAB
  0
TABLE
  2
LTYPE
  5
5
100
AcDbSymbolTable
 70
     3
  0
LTYPE
  5
12
100
AcDbSymbolTableRecord
100
AcDbLinetypeTableRecord
  2
BYBLOCK
 70
     0
  3

 72
    65
 73
     0
 40
0.0
  0
LTYPE
  5
13
100
AcDbSymbolTableRecord
100
AcDbLinetypeTableRecord
  2
BYLAYER
 70
     0
  3

 72
    65
 73
     0
 40
0.0
  0
LTYPE
  5
14
100
AcDbSymbolTableRecord
100
AcDbLinetypeTableRecord
  2
CONTINUOUS
 70
     0
  3
Solid line
 72
    65
 73
     0
 40
0.0
  0
ENDTAB
  0
TABLE
  2
LAYER
  5
2
100
AcDbSymbolTable
 70
     1
  0
LAYER
  5
E
100
AcDbSymbolTableRecord
100
AcDbLayerTableRecord
  2
0
 70
     0
 62
     7
  6
CONTINUOUS
  0
ENDTAB
  0
TABLE
  2
STYLE
  5
3
100
AcDbSymbolTable
 70
     1
  0
STYLE
  5
F
100
AcDbSymbolTableRecord
100
AcDbTextStyleTableRecord
  2
STANDARD
 70
     0
 40
0.0
 41
1.0
 50
0.0
 71
     0
 42
0.2
  3
txt.shx
  4

  0
ENDTAB
  0
TABLE
  2
VIEW
  5
6
100
AcDbSymbolTable
 70
     0
  0
ENDTAB
  0
TABLE
  2
UCS
  5
7
100
AcDbSymbolTable
 70
     0
  0
ENDTAB
  0
TABLE
  2
APPID
  5
9
100
AcDbSymbolTable
 70
     1
  0
APPID
  5
10
100
AcDbSymbolTableRecord
100
AcDbRegAppTableRecord
  2
ACAD
 70
     0
  0
ENDTAB
  0
TABLE
  2
DIMSTYLE
  5
A
100
AcDbSymbolTable
 70
     1
  0
DIMSTYLE
105
1D
100
AcDbSymbolTableRecord
100
AcDbDimStyleTableRecord
  2
STANDARD
 70
     0
  3

  4

  5

  6

  7

 40
1.0
 41
0.18
 42
0.0625
 43
0.38
 44
0.18
 45
0.0
 46
0.0
 47
0.0
 48
0.0
 71
     0
 72
     0
 73
     1
 74
     1
 75
     0
 76
     0
 77
     0
 78
     0
140
0.18
141
0.09
142
0.0
143
25.4
144
1.0
145
0.0
146
1.0
147
0.09
170
     0
171
     2
172
     0
173
     0
174
     0
175
     0
176
     0
177
     0
178
     0
270
     2
271
     4
272
     4
273
     2
274
     2
275
     0
280
     0
281
     0
282
     0
283
     1
284
     0
285
     0
286
     0
287
     3
288
     0
340
F
  0
ENDTAB
  0
TABLE
  2
BLOCK_RECORD
  5
1
100
AcDbSymbolTable
 70
     0
  0
BLOCK_RECORD
  5
18
100
AcDbSymbolTableRecord
100
AcDbBlockTableRecord
  2
*MODEL_SPACE
  0
BLOCK_RECORD
  5
15
100
AcDbSymbolTableRecord
100
AcDbBlockTableRecord
  2
*PAPER_SPACE
  0
ENDTAB
  0
ENDSEC
  0
SECTION
  2
BLOCKS
  0
BLOCK
  5
19
100
AcDbEntity
  8
0
100
AcDbBlockBegin
  2
*MODEL_SPACE
 70
     0
 10
0.0
 20
0.0
 30
0.0
  3
*MODEL_SPACE
  1

  0
ENDBLK
  5
1A
100
AcDbEntity
  8
0
100
AcDbBlockEnd
  0
BLOCK
  5
16
100
AcDbEntity
 67
     1
  8
0
100
AcDbBlockBegin
  2
*PAPER_SPACE
 70
     0
 10
0.0
 20
0.0
 30
0.0
  3
*PAPER_SPACE
  1

  0
ENDBLK
  5
17
100
AcDbEntity
 67
     1
  8
0
100
AcDbBlockEnd
  0
ENDSEC
  0
SECTION
  2
ENTITIES
  0
LINE
  5
32
102
{ACAD_REACTORS
330
31
102
}
100
AcDbEntity
  8
0
  6
CONTINUOUS
100
AcDbLine
 10
5.25
 20
5.746062
 30
0.0
 11
5.25
 21
7.139149
 31
0.0
  0
LINE
  5
33
102
{ACAD_REACTORS
330
31
102
}
100
AcDbEntity
  8
0
  6
CONTINUOUS
100
AcDbLine
 10
3.891733
 20
5.746062
 30
0.0
 11
5.25
 21
5.746062
 31
0.0
  0
LINE
  5
34
102
{ACAD_REACTORS
330
31
102
}
100
AcDbEntity
  8
0
  6
CONTINUOUS
100
AcDbLine
 10
3.891733
 20
5.746062
 30
0.0
 11
3.891733
 21
6.297244
 31
0.0
  0
LINE
  5
35
102
{ACAD_REACTORS
330
31
102
}
100
AcDbEntity
  8
0
  6
CONTINUOUS
100
AcDbLine
 10
3.891733
 20
6.297244
 30
0.0
 11
1.88408
 21
6.297244
 31
0.0
  0
LINE
  5
36
102
{ACAD_REACTORS
330
31
102
}
100
AcDbEntity
  8
0
  6
CONTINUOUS
100
AcDbLine
 10
1.88408
 20
6.297244
 30
0.0
 11
1.88408
 21
5.746062
 31
0.0
  0
LINE
  5
37
102
{ACAD_REACTORS
330
31
102
}
100
AcDbEntity
  8
0
  6
CONTINUOUS
100
AcDbLine
 10
0.525592
 20
7.139149
 30
0.0
 11
0.525592
 21
5.746062
 31
0.0
  0
ARC
  5
38
102
{ACAD_REACTORS
330
31
102
}
100
AcDbEntity
  8
0
  6
CONTINUOUS
100
AcDbCircle
 10
2.712995
 20
7.119464
 30
0.0
 40
0.019685
100
AcDbArc
 50
296.556507
 51
89.999996
  0
ARC
  5
39
102
{ACAD_REACTORS
330
31
102
}
100
AcDbEntity
  8
0
  6
CONTINUOUS
100
AcDbCircle
 10
2.888016
 20
6.769291
 30
0.0
 40
0.371791
100
AcDbArc
 50
116.556506
 51
150.965965
  0
LINE
  5
3A
102
{ACAD_REACTORS
330
31
102
}
100
AcDbEntity
  8
0
  6
CONTINUOUS
100
AcDbLine
 10
2.562948
 20
6.58885
 30
0.0
 11
2.562948
 21
6.949732
 31
0.0
  0
ARC
  5
3B
102
{ACAD_REACTORS
330
31
102
}
100
AcDbEntity
  8
0
  6
CONTINUOUS
100
AcDbCircle
 10
2.888016
 20
6.769291
 30
0.0
 40
0.371791
100
AcDbArc
 50
209.034033
 51
330.965967
  0
LINE
  5
3C
102
{ACAD_REACTORS
330
31
102
}
100
AcDbEntity
  8
0
  6
CONTINUOUS
100
AcDbLine
 10
3.213085
 20
6.949732
 30
0.0
 11
3.213085
 21
6.58885
 31
0.0
  0
ARC
  5
3D
102
{ACAD_REACTORS
330
31
102
}
100
AcDbEntity
  8
0
  6
CONTINUOUS
100
AcDbCircle
 10
2.888016
 20
6.769291
 30
0.0
 40
0.371791
100
AcDbArc
 50
29.034035
 51
63.443494
  0
ARC
  5
3E
102
{ACAD_REACTORS
330
31
102
}
100
AcDbEntity
  8
0
  6
CONTINUOUS
100
AcDbCircle
 10
3.063038
 20
7.119464
 30
0.0
 40
0.019685
100
AcDbArc
 50
90.000004
 51
243.443493
  0
CIRCLE
  5
3F
102
{ACAD_REACTORS
330
31
102
}
100
AcDbEntity
  8
0
  6
CONTINUOUS
100
AcDbCircle
 10
0.919292
 20
6.745448
 30
0.0
 40
0.064961
  0
CIRCLE
  5
40
102
{ACAD_REACTORS
330
31
102
}
100
AcDbEntity
  8
0
  6
CONTINUOUS
100
AcDbCircle
 10
4.8563
 20
6.745448
 30
0.0
 40
0.064961
  0
CIRCLE
  5
41
102
{ACAD_REACTORS
330
31
102
}
100
AcDbEntity
  8
0
  6
CONTINUOUS
100
AcDbCircle
 10
4.8563
 20
5.942913
 30
0.0
 40
0.064961
  0
CIRCLE
  5
42
102
{ACAD_REACTORS
330
31
102
}
100
AcDbEntity
  8
0
  6
CONTINUOUS
100
AcDbCircle
 10
0.919292
 20
5.942913
 30
0.0
 40
0.064961
  0
LINE
  5
43
102
{ACAD_REACTORS
330
31
102
}
100
AcDbEntity
  8
0
  6
CONTINUOUS
100
AcDbLine
 10
5.25
 20
7.139149
 30
0.0
 11
3.063038
 21
7.139149
 31
0.0
  0
LINE
  5
44
102
{ACAD_REACTORS
330
31
102
}
100
AcDbEntity
  8
0
  6
CONTINUOUS
100
AcDbLine
 10
2.712995
 20
7.139149
 30
0.0
 11
0.525592
 21
7.139149
 31
0.0
  0
LINE
  5
45
102
{ACAD_REACTORS
330
31
102
}
100
AcDbEntity
  8
0
  6
CONTINUOUS
100
AcDbLine
 10
0.525592
 20
5.746062
 30
0.0
 11
1.88408
 21
5.746062
 31
0.0
  0
CIRCLE
  5
47
102
{ACAD_REACTORS
330
46
102
}
100
AcDbEntity
  8
0
  6
CONTINUOUS
100
AcDbCircle
 10
6.236221
 20
6.311023
 30
0.0
 40
0.057555
  0
CIRCLE
  5
48
102
{ACAD_REACTORS
330
46
102
}
100
AcDbEntity
  8
0
  6
CONTINUOUS
100
AcDbCircle
 10
7.929134
 20
6.311023
 30
0.0
 40
0.057555
  0
LINE
  5
49
102
{ACAD_REACTORS
330
46
102
}
100
AcDbEntity
  8
0
  6
CONTINUOUS
100
AcDbLine
 10
6.0
 20
5.917322
 30
0.0
 11
8.677166
 21
5.917322
 31
0.0
  0
LINE
  5
4A
102
{ACAD_REACTORS
330
46
102
}
100
AcDbEntity
  8
0
  6
CONTINUOUS
100
AcDbLine
 10
6.0
 20
7.074409
 30
0.0
 11
6.0
 21
5.917322
 31
0.0
  0
LINE
  5
4B
102
{ACAD_REACTORS
330
46
102
}
100
AcDbEntity
  8
0
  6
CONTINUOUS
100
AcDbLine
 10
8.007874
 20
7.074803
 30
0.0
 11
6.0
 21
7.074409
 31
0.0
  0
LINE
  5
4C
102
{ACAD_REACTORS
330
46
102
}
100
AcDbEntity
  8
0
  6
CONTINUOUS
100
AcDbLine
 10
8.165355
 20
6.917322
 30
0.0
 11
8.007874
 21
7.074803
 31
0.0
  0
LINE
  5
4D
102
{ACAD_REACTORS
330
46
102
}
100
AcDbEntity
  8
0
  6
CONTINUOUS
100
AcDbLine
 10
8.677166
 20
6.707724
 30
0.0
 11
8.677166
 21
5.917322
 31
0.0
  0
CIRCLE
  5
4E
102
{ACAD_REACTORS
330
46
102
}
100
AcDbEntity
  8
0
  6
CONTINUOUS
100
AcDbCircle
 10
7.153544
 20
6.759842
 30
0.0
 40
0.057555
  0
CIRCLE
  5
4F
102
{ACAD_REACTORS
330
46
102
}
100
AcDbEntity
  8
0
  6
CONTINUOUS
100
AcDbCircle
 10
7.468504
 20
6.444881
 30
0.0
 40
0.057555
  0
CIRCLE
  5
50
102
{ACAD_REACTORS
330
46
102
}
100
AcDbEntity
  8
0
  6
CONTINUOUS
100
AcDbCircle
 10
7.783465
 20
6.759842
 30
0.0
 40
0.057555
  0
LINE
  5
51
102
{ACAD_REACTORS
330
46
102
}
100
AcDbEntity
  8
0
  6
CONTINUOUS
100
AcDbLine
 10
8.677166
 20
6.707724
 30
0.0
 11
8.165355
 21
6.707724
 31
0.0
  0
LINE
  5
52
102
{ACAD_REACTORS
330
46
102
}
100
AcDbEntity
  8
0
  6
CONTINUOUS
100
AcDbLine
 10
8.165355
 20
6.707724
 30
0.0
 11
8.165355
 21
6.917322
 31
0.0
  0
LINE
  5
54
102
{ACAD_REACTORS
330
53
102
}
100
AcDbEntity
  8
0
  6
CONTINUOUS
100
AcDbLine
 10
12.75
 20
6.917716
 30
0.0
 11
12.75
 21
8.074803
 31
0.0
  0
LINE
  5
55
102
{ACAD_REACTORS
330
53
102
}
100
AcDbEntity
  8
0
  6
CONTINUOUS
100
AcDbLine
 10
10.742126
 20
6.917322
 30
0.0
 11
12.75
 21
6.917716
 31
0.0
  0
LINE
  5
56
102
{ACAD_REACTORS
330
53
102
}
100
AcDbEntity
  8
0
  6
CONTINUOUS
100
AcDbLine
 10
10.584646
 20
7.074803
 30
0.0
 11
10.742126
 21
6.917322
 31
0.0
  0
LINE
  5
57
102
{ACAD_REACTORS
330
53
102
}
100
AcDbEntity
  8
0
  6
CONTINUOUS
100
AcDbLine
 10
1.057087
 20
8.074803
 30
0.0
 11
1.057087
 21
7.284401
 31
0.0
  0
LINE
  5
58
102
{ACAD_REACTORS
330
53
102
}
100
AcDbEntity
  8
0
  6
CONTINUOUS
100
AcDbLine
 10
12.75
 20
8.074803
 30
0.0
 11
1.057087
 21
8.074803
 31
0.0
  0
CIRCLE
  5
59
102
{ACAD_REACTORS
330
53
102
}
100
AcDbEntity
  8
0
  6
CONTINUOUS
100
AcDbCircle
 10
12.51378
 20
7.681102
 30
0.0
 40
0.057555
  0
CIRCLE
  5
5A
102
{ACAD_REACTORS
330
53
102
}
100
AcDbEntity
  8
0
  6
CONTINUOUS
100
AcDbCircle
 10
10.820867
 20
7.681102
 30
0.0
 40
0.057555
  0
CIRCLE
  5
5B
102
{ACAD_REACTORS
330
53
102
}
100
AcDbEntity
  8
0
  6
CONTINUOUS
100
AcDbCircle
 10
3.742127
 20
7.681102
 30
0.0
 40
0.057555
  0
CIRCLE
  5
5C
102
{ACAD_REACTORS
330
53
102
}
100
AcDbEntity
  8
0
  6
CONTINUOUS
100
AcDbCircle
 10
4.844489
 20
7.681102
 30
0.0
 40
0.057555
  0
CIRCLE
  5
5D
102
{ACAD_REACTORS
330
53
102
}
100
AcDbEntity
  8
0
  6
CONTINUOUS
100
AcDbCircle
 10
7.679134
 20
7.681102
 30
0.0
 40
0.057555
  0
CIRCLE
  5
5E
102
{ACAD_REACTORS
330
53
102
}
100
AcDbEntity
  8
0
  6
CONTINUOUS
100
AcDbCircle
 10
8.781497
 20
7.681102
 30
0.0
 40
0.057555
  0
LINE
  5
5F
102
{ACAD_REACTORS
330
53
102
}
100
AcDbEntity
  8
0
  6
CONTINUOUS
100
AcDbLine
 10
1.057087
 20
7.284401
 30
0.0
 11
10.584646
 21
7.284401
 31
0.0
  0
LINE
  5
60
102
{ACAD_REACTORS
330
53
102
}
100
AcDbEntity
  8
0
  6
CONTINUOUS
100
AcDbLine
 10
10.584646
 20
7.284401
 30
0.0
 11
10.584646
 21
7.074803
 31
0.0
  0
CIRCLE
  5
62
102
{ACAD_REACTORS
330
61
102
}
100
AcDbEntity
  8
0
  6
CONTINUOUS
100
AcDbCircle
 10
12.0
 20
6.318897
 30
0.0
 40
0.086614
  0
CIRCLE
  5
63
102
{ACAD_REACTORS
330
61
102
}
100
AcDbEntity
  8
0
  6
CONTINUOUS
100
AcDbCircle
 10
12.0
 20
0.177165
 30
0.0
 40
0.086614
  0
CIRCLE
  5
64
102
{ACAD_REACTORS
330
61
102
}
100
AcDbEntity
  8
0
  6
CONTINUOUS
100
AcDbCircle
 10
1.771654
 20
1.476598
 30
0.0
 40
0.057555
  0
CIRCLE
  5
65
102
{ACAD_REACTORS
330
61
102
}
100
AcDbEntity
  8
0
  6
CONTINUOUS
100
AcDbCircle
 10
0.393701
 20
1.476598
 30
0.0
 40
0.057555
  0
CIRCLE
  5
66
102
{ACAD_REACTORS
330
61
102
}
100
AcDbEntity
  8
0
  6
CONTINUOUS
100
AcDbCircle
 10
1.771654
 20
5.216755
 30
0.0
 40
0.057555
  0
CIRCLE
  5
67
102
{ACAD_REACTORS
330
61
102
}
100
AcDbEntity
  8
0
  6
CONTINUOUS
100
AcDbCircle
 10
0.393701
 20
5.216755
 30
0.0
 40
0.057555
  0
LINE
  5
68
102
{ACAD_REACTORS
330
61
102
}
100
AcDbEntity
  8
0
  6
CONTINUOUS
100
AcDbLine
 10
11.606299
 20
0.0
 30
0.0
 11
12.846457
 21
0.0
 31
0.0
  0
LINE
  5
69
102
{ACAD_REACTORS
330
61
102
}
100
AcDbEntity
  8
0
  6
CONTINUOUS
100
AcDbLine
 10
11.606299
 20
0.885827
 30
0.0
 11
11.606299
 21
0.0
 31
0.0
  0
LINE
  5
6A
102
{ACAD_REACTORS
330
61
102
}
100
AcDbEntity
  8
0
  6
CONTINUOUS
100
AcDbLine
 10
0.0
 20
0.885827
 30
0.0
 11
11.606299
 21
0.885827
 31
0.0
  0
LINE
  5
6B
102
{ACAD_REACTORS
330
61
102
}
100
AcDbEntity
  8
0
  6
CONTINUOUS
100
AcDbLine
 10
0.0
 20
2.755905
 30
0.0
 11
0.157481
 21
2.755905
 31
0.0
  0
LINE
  5
6C
102
{ACAD_REACTORS
330
61
102
}
100
AcDbEntity
  8
0
  6
CONTINUOUS
100
AcDbLine
 10
0.157481
 20
2.755905
 30
0.0
 11
0.157481
 21
2.913386
 31
0.0
  0
LINE
  5
6D
102
{ACAD_REACTORS
330
61
102
}
100
AcDbEntity
  8
0
  6
CONTINUOUS
100
AcDbLine
 10
0.157481
 20
2.913386
 30
0.0
 11
0.472441
 21
2.913386
 31
0.0
  0
LINE
  5
6E
102
{ACAD_REACTORS
330
61
102
}
100
AcDbEntity
  8
0
  6
CONTINUOUS
100
AcDbLine
 10
0.472441
 20
3.011811
 30
0.0
 11
0.551182
 21
3.011811
 31
0.0
  0
ARC
  5
6F
102
{ACAD_REACTORS
330
61
102
}
100
AcDbEntity
  8
0
  6
CONTINUOUS
100
AcDbCircle
 10
0.236221
 20
3.248031
 30
0.0
 40
0.393701
100
AcDbArc
 50
323.1301
 51
36.8699
  0
LINE
  5
70
102
{ACAD_REACTORS
330
61
102
}
100
AcDbEntity
  8
0
  6
CONTINUOUS
100
AcDbLine
 10
0.551182
 20
3.484252
 30
0.0
 11
0.472441
 21
3.484252
 31
0.0
  0
LINE
  5
71
102
{ACAD_REACTORS
330
61
102
}
100
AcDbEntity
  8
0
  6
CONTINUOUS
100
AcDbLine
 10
0.472441
 20
3.484252
 30
0.0
 11
0.472441
 21
4.448819
 31
0.0
  0
ARC
  5
72
102
{ACAD_REACTORS
330
61
102
}
100
AcDbEntity
  8
0
  6
CONTINUOUS
100
AcDbCircle
 10
0.433071
 20
4.448819
 30
0.0
 40
0.03937
100
AcDbArc
 50
0.0
 51
90.000002
  0
LINE
  5
73
102
{ACAD_REACTORS
330
61
102
}
100
AcDbEntity
  8
0
  6
CONTINUOUS
100
AcDbLine
 10
0.393701
 20
4.488189
 30
0.0
 11
0.433071
 21
4.488189
 31
0.0
  0
ARC
  5
74
102
{ACAD_REACTORS
330
61
102
}
100
AcDbEntity
  8
0
  6
CONTINUOUS
100
AcDbCircle
 10
0.393701
 20
4.448819
 30
0.0
 40
0.03937
100
AcDbArc
 50
89.999998
 51
179.999998
  0
LINE
  5
75
102
{ACAD_REACTORS
330
61
102
}
100
AcDbEntity
  8
0
  6
CONTINUOUS
100
AcDbLine
 10
0.354331
 20
3.582677
 30
0.0
 11
0.354331
 21
4.448819
 31
0.0
  0
LINE
  5
76
102
{ACAD_REACTORS
330
61
102
}
100
AcDbEntity
  8
0
  6
CONTINUOUS
100
AcDbLine
 10
0.354331
 20
3.582677
 30
0.0
 11
0.157481
 21
3.582677
 31
0.0
  0
LINE
  5
77
102
{ACAD_REACTORS
330
61
102
}
100
AcDbEntity
  8
0
  6
CONTINUOUS
100
AcDbLine
 10
0.157481
 20
3.582677
 30
0.0
 11
0.157481
 21
3.740157
 31
0.0
  0
LINE
  5
78
102
{ACAD_REACTORS
330
61
102
}
100
AcDbEntity
  8
0
  6
CONTINUOUS
100
AcDbLine
 10
0.157481
 20
3.740157
 30
0.0
 11
0.0
 21
3.740157
 31
0.0
  0
LINE
  5
79
102
{ACAD_REACTORS
330
61
102
}
100
AcDbEntity
  8
0
  6
CONTINUOUS
100
AcDbLine
 10
0.0
 20
5.610236
 30
0.0
 11
0.0
 21
3.740157
 31
0.0
  0
LINE
  5
7A
102
{ACAD_REACTORS
330
61
102
}
100
AcDbEntity
  8
0
  6
CONTINUOUS
100
AcDbLine
 10
11.606299
 20
5.610236
 30
0.0
 11
0.0
 21
5.610236
 31
0.0
  0
LINE
  5
7B
102
{ACAD_REACTORS
330
61
102
}
100
AcDbEntity
  8
0
  6
CONTINUOUS
100
AcDbLine
 10
11.606299
 20
6.496062
 30
0.0
 11
11.606299
 21
5.610236
 31
0.0
  0
LINE
  5
7C
102
{ACAD_REACTORS
330
61
102
}
100
AcDbEntity
  8
0
  6
CONTINUOUS
100
AcDbLine
 10
12.846457
 20
6.496062
 30
0.0
 11
11.606299
 21
6.496062
 31
0.0
  0
LINE
  5
7D
102
{ACAD_REACTORS
330
61
102
}
100
AcDbEntity
  8
0
  6
CONTINUOUS
100
AcDbLine
 10
12.846457
 20
0.0
 30
0.0
 11
12.846457
 21
6.496062
 31
0.0
  0
LINE
  5
7E
102
{ACAD_REACTORS
330
61
102
}
100
AcDbEntity
  8
0
  6
CONTINUOUS
100
AcDbLine
 10
0.0
 20
2.755905
 30
0.0
 11
0.0
 21
0.885827
 31
0.0
  0
LINE
  5
7F
102
{ACAD_REACTORS
330
61
102
}
100
AcDbEntity
  8
0
  6
CONTINUOUS
100
AcDbLine
 10
0.472441
 20
2.913386
 30
0.0
 11
0.472441
 21
3.011811
 31
0.0
  0
CIRCLE
  5
80
102
{ACAD_REACTORS
330
61
102
}
100
AcDbEntity
  8
0
  6
CONTINUOUS
100
AcDbCircle
 10
4.519685
 20
5.216535
 30
0.0
 40
0.07874
  0
CIRCLE
  5
81
102
{ACAD_REACTORS
330
61
102
}
100
AcDbEntity
  8
0
  6
CONTINUOUS
100
AcDbCircle
 10
8.456693
 20
5.216535
 30
0.0
 40
0.07874
  0
CIRCLE
  5
82
102
{ACAD_REACTORS
330
61
102
}
100
AcDbEntity
  8
0
  6
CONTINUOUS
100
AcDbCircle
 10
8.456693
 20
1.279527
 30
0.0
 40
0.07874
  0
CIRCLE
  5
83
102
{ACAD_REACTORS
330
61
102
}
100
AcDbEntity
  8
0
  6
CONTINUOUS
100
AcDbCircle
 10
4.519685
 20
1.279527
 30
0.0
 40
0.07874
  0
ENDSEC
  0
SECTION
  2
OBJECTS
  0
DICTIONARY
  5
C
100
AcDbDictionary
  3
ACAD_GROUP
350
D
  3
ACAD_MLINESTYLE
350
1B
  0
DICTIONARY
  5
D
102
{ACAD_REACTORS
330
C
102
}
100
AcDbDictionary
  3
VISIOGROUP_0
350
31
  3
VISIOGROUP_1
350
46
  3
VISIOGROUP_2
350
53
  3
VISIOGROUP_3
350
61
  0
DICTIONARY
  5
1B
102
{ACAD_REACTORS
330
C
102
}
100
AcDbDictionary
  3
STANDARD
350
1C
  0
MLINESTYLE
  5
1C
102
{ACAD_REACTORS
330
1B
102
}
100
AcDbMlineStyle
  2
STANDARD
 70
     0
  3

 62
   256
 51
90.0
 52
90.0
 71
     2
 49
0.5
 62
   256
  6
BYLAYER
 49
-0.5
 62
   256
  6
BYLAYER
  0
DICTIONARY
  5
29
102
{ACAD_REACTORS
330
C
102
}
100
AcDbDictionary
  3
MODEL
350
2A
  3
LAYOUT1
350
2B
  0
DICTIONARY
  5
2C
102
{ACAD_REACTORS
330
C
102
}
100
AcDbDictionary
  0
GROUP
  5
31
102
{ACAD_REACTORS
330
D
102
}
100
AcDbGroup
300
Group created by Visio.
 70
     0
 71
     1
340
32
340
33
340
34
340
35
340
36
340
37
340
38
340
39
340
3A
340
3B
340
3C
340
3D
340
3E
340
3F
340
40
340
41
340
42
340
43
340
44
340
45
  0
GROUP
  5
46
102
{ACAD_REACTORS
330
D
102
}
100
AcDbGroup
300
Group created by Visio.
 70
     0
 71
     1
340
47
340
48
340
49
340
4A
340
4B
340
4C
340
4D
340
4E
340
4F
340
50
340
51
340
52
  0
GROUP
  5
53
102
{ACAD_REACTORS
330
D
102
}
100
AcDbGroup
300
Group created by Visio.
 70
     0
 71
     1
340
54
340
55
340
56
340
57
340
58
340
59
340
5A
340
5B
340
5C
340
5D
340
5E
340
5F
340
60
  0
GROUP
  5
61
102
{ACAD_REACTORS
330
D
102
}
100
AcDbGroup
300
Group created by Visio.
 70
     0
 71
     1
340
62
340
63
340
64
340
65
340
66
340
67
340
68
340
69
340
6A
340
6B
340
6C
340
6D
340
6E
340
6F
340
70
340
71
340
72
340
73
340
74
340
75
340
76
340
77
340
78
340
79
340
7A
340
7B
340
7C
340
7D
340
7E
340
7F
340
80
340
81
340
82
340
83
  0
ENDSEC
  0
EOF
